<svg xmlns="http://www.w3.org/2000/svg" viewBox="0 0 133.43 28.95"><defs><style>.cls-1{fill:none;stroke:#fff;stroke-miterlimit:10;stroke-width:0.25px;}</style></defs><g id="Layer_2" data-name="Layer 2"><g id="Layer_1-2" data-name="Layer 1"><g id="Layer_2-2" data-name="Layer 2"><g id="Layer_1-2-2" data-name="Layer 1-2"><path class="cls-1" d="M11.34,7.73H8.83A1.66,1.66,0,0,0,7.12,9.22L5.47,15.7a8.75,8.75,0,0,0-.23,1.75c0,1.65.93,2.47,2.74,2.47H9.59l-.26,1.2H3.43c-2.19,0-3.31-1-3.31-3.06a9.24,9.24,0,0,1,.31-2.17l1.32-5.24c.69-2.77,2.36-4.2,5-4.2h4.94Z"/><path class="cls-1" d="M23.53,13.47H19.44l.94-3.63a3.76,3.76,0,0,0,.1-.66c0-1-.71-1.45-2-1.45L16,17.65c-.59,2.34-1.71,3.5-3.36,3.5H10.35L13.94,6.48h8.55c1.35,0,2,.72,2,2.21a6.83,6.83,0,0,1-.3,2Z"/><path class="cls-1" d="M33.85,26.06c-.45,1.84-1.45,2.77-2.93,2.77H22.45l.3-1.23h4.31c1.18,0,1.91-.66,2.27-2.08l1.16-4.4H25.61c-1.35,0-1.84-.55-1.84-1.64a.63.63,0,0,1,.11-.43L27.06,6.48h4.81L28.49,19.92h2.2L34.06,6.48h4.7Z"/><path class="cls-1" d="M49.4,17.65c-.64,2.34-1.73,3.47-3.34,3.47H41.24L40,26c-.5,1.85-1.46,2.78-2.94,2.78H33.9l.29-1.23a1.13,1.13,0,0,0,1.23-1L39.53,9.91c.57-2.35,1.62-3.5,3.66-3.5h9ZM45.28,7.73a.84.84,0,0,0-.93.72L41.51,19.92H42.6c.75,0,1.28-.45,1.51-1.37L46.76,7.73Z"/><path class="cls-1" d="M59.94,6.48h3.67l-.3,1.25h-3.1c-.43,0-.63.22-.75.72L57.64,15.7a5.88,5.88,0,0,0-.29,1.42c0,2,.41,2.85,2,2.85H61l-.22,1.15H55.26c-2.14,0-3.2-.87-3.2-2.62a5.12,5.12,0,0,1,.2-1.55L54.6,7.73H52.69L53,6.48H54.9L56.46.12h5.07Z"/><path class="cls-1" d="M74.22,17.65c-.59,2.34-2,3.5-4.22,3.5H62.06L64.79,10c.56-2.36,1.85-3.5,3.79-3.5h8.48Zm-3.4-10c-.56,0-.92.33-1,1L66.93,19.92h1.13c.76,0,1.26-.45,1.48-1.37l2.7-10.89Z"/><path class="cls-1" d="M86.36,10.12h-3.3a.92.92,0,0,0-1,.57l-2.84,8.43a2,2,0,0,1-.76,1.15H80c.25,0,.44-.19.58-.57l1.49-4.37h3l-1.37,3.79a2.1,2.1,0,0,1-2.16,1.65h-7.2l.2-.5h.23a.82.82,0,0,0,.89-.57L78.5,11a2.14,2.14,0,0,1,2.34-1.43h5.69Z"/><path class="cls-1" d="M94.46,13.7a2.41,2.41,0,0,1-1.68,1.21,1.16,1.16,0,0,1,1,1.17l-.36,4.73h-3l.55-5c0-.34-.23-.51-.73-.51h-.95L88,19.38A1.9,1.9,0,0,1,86,20.82H83.56l.19-.5c.56,0,.93-.2,1-.57L87.6,11a1.89,1.89,0,0,1,2-1.43h6.16Zm-2.95-3.58a.71.71,0,0,0-.69.57l-1.36,4.08h.86a.79.79,0,0,0,.82-.6l1.36-4.05Z"/><path class="cls-1" d="M101.31,20.81H98.57l1.78-5.53H98.78l-1.33,4.08a1.72,1.72,0,0,1-2,1.45H92.61l.13-.29h.62a.85.85,0,0,0,.9-.57L97.18,11a1.8,1.8,0,0,1,2-1.43H105Zm-.25-10.69a.74.74,0,0,0-.74.57L99,14.81h1.14c.29,0,.43-.08.48-.24l1.47-4.45Z"/><path class="cls-1" d="M112.43,14.89a2.16,2.16,0,0,1-2,1.45h-3l-1,3a2,2,0,0,1-2,1.44h-2.94l.2-.5h.39a.8.8,0,0,0,.8-.57L105.72,11c.3-1,1.07-1.43,2.53-1.43h5.87Zm-2.37-4.77a.75.75,0,0,0-.78.57l-1.7,5.14h1.15a.52.52,0,0,0,.46-.29l1.8-5.42Z"/><path class="cls-1" d="M119.06,20.81h-3l1.76-5.48h-1.57l-1.76,5.48h-4.06l.2-.5c.64,0,1-.2,1.16-.57L115.1,9.59h3l-1.7,5.19h1.52l1.69-5.19h3Z"/><path class="cls-1" d="M122.67,20.81h-2.61L123.7,9.59h2.64Z"/><path class="cls-1" d="M133.06,10.12h-2.58c-.29,0-.5.2-.63.57l-2.33,7.06a3.52,3.52,0,0,0-.22,1.06c0,1,.58,1.53,1.89,1.53h.58l-.13.5h-.93c-2.83,0-4.29-.77-4.29-2.33a3.91,3.91,0,0,1,.22-1.12l2.07-6.33a1.82,1.82,0,0,1,2-1.44h4.54Z"/></g></g></g></g></svg>