<svg xmlns="http://www.w3.org/2000/svg" viewBox="0 0 22.71 22.71"><defs><style>.cls-1{fill:#aedff4;}.cls-2{fill:none;stroke:#aedff4;stroke-miterlimit:10;stroke-width:2px;}</style></defs><g id="Layer_2" data-name="Layer 2"><g id="Layer_1-2" data-name="Layer 1"><path class="cls-1" d="M13.71,15.9a.6.6,0,0,1-.47.73,14,14,0,0,1-1.76.42,1.66,1.66,0,0,1-1.89-2.2c.19-.85.47-1.69.69-2.53a5.73,5.73,0,0,0,.18-1c0-.64-.26-.9-.9-.82-.25,0-.49.1-.76.16,0-.41.11-.7.55-.79a11,11,0,0,1,1.77-.39c1.41-.08,2.09.87,1.72,2.35-.23.93-.54,1.84-.76,2.78-.29,1.26.06,1.58,1.34,1.34Z"/><path class="cls-1" d="M12.47,8.28A1.39,1.39,0,0,1,11,7a1.42,1.42,0,0,1,1.47-1.3A1.39,1.39,0,0,1,13.91,7,1.37,1.37,0,0,1,12.47,8.28Z"/><circle class="cls-2" cx="11.35" cy="11.35" r="10.35"/></g></g></svg>