<?xml version="1.0" encoding="utf-8"?>
<!-- Generator: Adobe Illustrator 26.0.1, SVG Export Plug-In . SVG Version: 6.00 Build 0)  -->
<svg version="1.1" id="Layer_1" xmlns="http://www.w3.org/2000/svg" xmlns:xlink="http://www.w3.org/1999/xlink" x="0px" y="0px"
	 viewBox="0 0 24 24" style="enable-background:new 0 0 24 24;" xml:space="preserve">
<style type="text/css">
	.st0{fill:#AEDFF4;}
</style>
<path class="st0" d="M2,23H0v-2h2V23z M2,11H0v2h2V11z M2,16H0v2h2V16z M2,1H0v2h2V1z M4,1v2h20V1H4z M2,6H0v2h2V6z M4,13h20v-2H4
	V13z M4,23h20v-2H4V23z M4,8h20V6H4V8z M4,18h20v-2H4V18z"/>
</svg>
